<?xml version="1.0" encoding="UTF-8"?>
<svg width="11px" height="15px" viewBox="0 0 11 15" version="1.1" xmlns="http://www.w3.org/2000/svg" xmlns:xlink="http://www.w3.org/1999/xlink">
    <!-- Generator: Sketch 43.1 (39012) - http://www.bohemiancoding.com/sketch -->
    <title>uEA29-product</title>
    <desc>Created with Sketch.</desc>
    <defs></defs>
    <g id="Page-1" stroke="none" stroke-width="1" fill="none" fill-rule="evenodd">
        <g id="wiki-mode" transform="translate(-145.000000, -432.000000)" fill-rule="nonzero" fill="#000000">
            <g id="Group-3" transform="translate(11.000000, 95.000000)">
                <g id="Group" transform="translate(22.000000, 289.000000)">
                    <path d="M115.5,54.497531 L115.5,51 C115.5,49.5644154 116.213328,49.0005772 117.5,49.0005772 C118.77798,49.0005772 119.50396,49.5848088 119.50396,51 L119.50396,54.497531 C119.50396,54.7736734 119.727818,54.997531 120.00396,54.997531 C120.280102,54.997531 120.50396,54.7736734 120.50396,54.497531 L120.50396,51 C120.50396,48.9788866 119.288289,48.0005772 117.5,48.0005772 C115.705815,48.0005772 114.5,48.9536937 114.5,51 L114.5,54.497531 C114.5,54.7736734 114.723858,54.997531 115,54.997531 C115.276142,54.997531 115.5,54.7736734 115.5,54.497531 Z M121.999717,61.5 L121.99462,53 L113.044268,53 L113.002335,61.5 L121.999717,61.5 Z M112.048917,52 L122.994054,52 L123.000283,62.5 L111.997665,62.5 L112.048917,52 Z" id="uEA29-product"></path>
                </g>
            </g>
        </g>
    </g>
</svg>