<?xml version="1.0" encoding="UTF-8"?>
<svg width="12px" height="13px" viewBox="0 0 12 13" version="1.1" xmlns="http://www.w3.org/2000/svg" xmlns:xlink="http://www.w3.org/1999/xlink">
    <!-- Generator: Sketch 43.1 (39012) - http://www.bohemiancoding.com/sketch -->
    <title>uEA27-person</title>
    <desc>Created with Sketch.</desc>
    <defs></defs>
    <g id="Page-1" stroke="none" stroke-width="1" fill="none" fill-rule="evenodd">
        <g id="wiki-mode" transform="translate(-140.000000, -152.000000)" fill-rule="nonzero" fill="#979797">
            <g id="Group-3" transform="translate(11.000000, 95.000000)">
                <g id="Group-2">
                    <path d="M131.461714,65.6817049 C129.962584,66.785926 129.200396,68.0677253 129.399216,69.903833 L130.393404,69.7961792 C130.238859,68.3689489 130.814981,67.4000629 132.054773,66.4868636 C132.220402,66.3648658 132.393744,66.2460994 132.610262,66.1042882 C132.675402,66.0616242 133.041764,65.8249127 133.140117,65.7597968 C133.586126,65.4645114 133.8278,65.2671687 133.987606,65.0199876 C134.089222,64.862812 134.146545,64.6925014 134.146545,64.5103231 C134.146545,64.1344828 134.014787,63.8216824 133.763195,63.4841347 C133.670496,63.3597654 133.32962,62.9566152 133.306948,62.9284783 C132.882287,62.4014646 132.688685,61.9385849 132.688685,61.208014 C132.76755,59.1837433 133.58395,58.0193817 135.11342,58.0193817 C136.612011,58.0193817 137.684905,59.4426133 137.684905,61.0420728 C137.684905,61.5845415 137.463993,62.0758464 136.975058,62.7673599 C136.909318,62.8603369 136.675236,63.1831363 136.683098,63.172208 C136.565086,63.3362543 136.481964,63.4573086 136.407974,63.5759436 C136.195028,63.9173787 136.081728,64.2054436 136.081728,64.5103231 C136.081728,64.9275048 136.334513,65.1803082 136.904812,65.5643413 C136.879003,65.5469618 137.903801,66.2034805 138.216015,66.4295829 C139.561747,67.4041478 140.149204,68.3916876 139.871453,69.7498254 L140.851175,69.9501868 C141.223431,68.1299387 140.432188,66.7998259 138.802552,65.6196606 C138.462774,65.3735965 137.416667,64.7034266 137.463366,64.7348731 C137.19795,64.556145 137.081728,64.4399144 137.081728,64.5103231 C137.081728,64.3482381 137.079627,64.3516073 137.791576,63.3446796 C138.389821,62.4985658 138.684905,61.8423049 138.684905,61.0420728 C138.684905,58.9419269 137.235607,57.0193817 135.11342,57.0193817 C132.944609,57.0193817 131.786686,58.6708289 131.68906,61.1886416 C131.688685,62.1898146 131.970584,62.8638011 132.528282,63.5559168 C132.567936,63.6051289 132.890566,63.9867002 132.961409,64.0817469 C133.085117,64.2477189 133.138036,64.3633192 133.145587,64.4803332 C133.025002,64.6480963 131.443266,65.6952934 131.461714,65.6817049 Z" id="uEA27-person"></path>
                </g>
            </g>
        </g>
    </g>
</svg>