<?xml version="1.0" encoding="UTF-8"?>
<svg width="14px" height="14px" viewBox="0 0 14 14" version="1.1" xmlns="http://www.w3.org/2000/svg" xmlns:xlink="http://www.w3.org/1999/xlink">
    <!-- Generator: Sketch 43.1 (39012) - http://www.bohemiancoding.com/sketch -->
    <title>uEA28-music</title>
    <desc>Created with Sketch.</desc>
    <defs></defs>
    <g id="Page-1" stroke="none" stroke-width="1" fill="none" fill-rule="evenodd" fill-opacity="0.6">
        <g id="wiki-mode" transform="translate(-142.000000, -307.000000)" fill-rule="nonzero" fill="#FBF9F9">
            <g id="Group-3" transform="translate(11.000000, 95.000000)">
                <g id="Group-Copy" transform="translate(21.000000, 159.000000)">
                    <path d="M120.943043,60.6914664 C119.856115,60.6914664 119.485943,61.3206732 119.485943,62.2466774 C119.485943,62.9569828 119.971019,63.6372412 120.943043,63.6372412 C121.472554,63.6372412 121.848878,63.4227155 122.126819,63.0490432 C122.280622,62.8422642 122.373778,62.6329977 122.415826,62.4925547 L122.413306,61.2295286 C122.388848,60.7868247 122.174551,60.6914664 120.943043,60.6914664 Z M113.404345,62.5139664 C112.511386,62.5139664 111.849992,63.20132 111.870422,63.9667615 C111.898159,65.0059554 112.273099,65.4936643 113.379345,65.4936643 C113.942085,65.4936643 114.344728,65.2849695 114.640521,64.927943 C114.795621,64.7407363 114.892046,64.5529457 114.938175,64.4247246 L114.930678,63.322325 C114.855683,62.9143952 114.260896,62.5139664 113.404345,62.5139664 Z M115.938688,64.4968037 L115.920422,64.6341567 C115.851232,64.8829778 115.69381,65.2240548 115.410573,65.5659249 C114.933041,66.1423114 114.255163,66.4936643 113.379345,66.4936643 C111.658224,66.4936643 110.911589,65.5224668 110.870778,63.9934429 C110.835404,62.6681173 111.945966,61.5139664 113.404345,61.5139664 C113.976553,61.5139664 114.500093,61.6497946 114.920883,61.8818044 C115.488837,62.1949555 115.869604,62.683328 115.930206,63.2494343 C115.935833,63.3019975 115.938699,63.3552309 115.938699,63.4090564 L114.938699,63.4090564 C114.938699,63.3802015 114.935995,63.3512444 114.930678,63.322325 L114.877404,55.487747 L123.397607,53.3601061 L123.415956,62.5566625 L123.402304,62.673704 C123.340805,62.9314524 123.196068,63.2870685 122.929197,63.6458581 C122.472823,64.259424 121.81005,64.6372412 120.943043,64.6372412 C119.332007,64.6372412 118.485943,63.450743 118.485943,62.2466774 C118.485943,60.8409248 119.162187,59.6914664 120.943043,59.6914664 C121.560196,59.6914664 122.04246,59.747153 122.410585,59.8654821 C123.092717,60.0847455 123.382941,60.519098 123.413275,61.2127967 C123.415072,61.2538995 123.415957,61.2959128 123.415957,61.3388457 L122.415957,61.3388457 C122.415957,61.3002418 122.415202,61.2638419 122.413306,61.2295286 L122.400158,54.6398939 L115.882729,56.267408 L115.938688,64.4968037 Z" id="uEA28-music"></path>
                </g>
            </g>
        </g>
    </g>
</svg>