<?xml version="1.0" encoding="UTF-8"?>
<svg width="24px" height="25px" viewBox="0 0 24 25" version="1.1" xmlns="http://www.w3.org/2000/svg" xmlns:xlink="http://www.w3.org/1999/xlink">
    <!-- Generator: Sketch 43.1 (39012) - http://www.bohemiancoding.com/sketch -->
    <title>uEA37-scene</title>
    <desc>Created with Sketch.</desc>
    <defs></defs>
    <g id="Page-1" stroke="none" stroke-width="1" fill="none" fill-rule="evenodd">
        <g id="wiki-products" transform="translate(-935.000000, -203.000000)" fill-rule="nonzero" fill="#979797">
            <path d="M949.357485,208.974564 L950.077638,205.845853 L946.617839,207.251261 L945.7476,210.42833 L949.357485,208.974564 Z M950.2105,208.631039 L953.962837,207.119905 L952.806678,204.737287 L950.954061,205.48984 L950.2105,208.631039 Z M944.848335,210.790481 L945.761556,207.599092 L941.766106,209.222087 L940.919456,212.372712 L944.848335,210.790481 Z M940.073317,212.713468 L940.886918,209.579223 L936.792712,211.242334 L937.800394,213.628815 L940.073317,212.713468 Z M937.291042,214.538606 L955.716736,209.631331 L958.624147,220.703159 C958.97429,222.036553 958.180012,223.399534 956.84885,223.753313 L943.321429,227.348454 C941.990928,227.702057 940.62361,226.912391 940.265812,225.58389 L937.291042,214.538606 Z M941.194624,225.658813 C941.409105,226.455179 942.229695,226.929094 943.027798,226.716984 L956.862828,222.88141 C957.661578,222.669129 958.137873,221.851806 957.927767,221.051692 L955.098184,210.63173 L938.184295,215.021524 L941.194624,225.658813 Z M935.844369,210.953419 L953.329869,203.699098 L954.946574,207.432229 L937.298336,214.50149 L935.844369,210.953419 Z" id="uEA37-scene"></path>
        </g>
    </g>
</svg>