<?xml version="1.0" encoding="UTF-8"?>
<svg width="15px" height="15px" viewBox="0 0 15 15" version="1.1" xmlns="http://www.w3.org/2000/svg" xmlns:xlink="http://www.w3.org/1999/xlink">
    <!-- Generator: Sketch 43.1 (39012) - http://www.bohemiancoding.com/sketch -->
    <title>uEA30-trivia</title>
    <desc>Created with Sketch.</desc>
    <defs></defs>
    <g id="Page-1" stroke="none" stroke-width="1" fill="none" fill-rule="evenodd">
        <g id="wiki-mode" transform="translate(-42.000000, -529.000000)" fill-rule="nonzero" fill="#979797">
            <g id="Group-3" transform="translate(11.000000, 95.000000)">
                <g id="Group-2-Copy" transform="translate(22.000000, 399.000000)">
                    <path d="M17.1046512,38.0309548 C16.8816748,38.0309548 16.6976744,38.2149552 16.6976744,38.4379315 C16.6976744,38.6609078 16.8816748,38.8449082 17.1046512,38.8449082 C17.3276275,38.8449082 17.5116279,38.6609078 17.5116279,38.4379315 C17.5116279,38.2149552 17.3276275,38.0309548 17.1046512,38.0309548 Z M17.1046512,37.0309548 C17.8799124,37.0309548 18.5116279,37.6626706 18.5116279,38.4379315 C18.5116279,39.2131924 17.8799124,39.8449082 17.1046512,39.8449082 C16.32939,39.8449082 15.6976744,39.2131924 15.6976744,38.4379315 C15.6976744,37.6626706 16.32939,37.0309548 17.1046512,37.0309548 Z M16.4856622,36.0309548 C13.1847868,36.0309548 10.4856622,38.7300806 10.4856622,42.0309548 C10.4856622,45.3318289 13.1847868,48.0309548 16.4856622,48.0309548 C19.7865376,48.0309548 22.4856622,45.3318289 22.4856622,42.0309548 C22.4856622,38.7300806 19.7865376,36.0309548 16.4856622,36.0309548 Z M16.4856622,35.0309548 C20.3388225,35.0309548 23.4856622,38.1777959 23.4856622,42.0309548 C23.4856622,45.8841136 20.3388225,49.0309548 16.4856622,49.0309548 C12.6325019,49.0309548 9.4856622,45.8841136 9.4856622,42.0309548 C9.4856622,38.1777959 12.6325019,35.0309548 16.4856622,35.0309548 Z M15.6820099,41.898113 C15.6153176,42.2799713 15.5266504,42.6147747 15.2463904,43.5949387 C15.2275534,43.6608381 15.2275534,43.6608381 15.2087098,43.7269128 C14.6027357,45.8535273 14.4941361,46.5900031 15.1185435,47.066018 C15.80006,47.5855699 16.4977966,47.3827108 17.0549455,46.8096105 C17.231462,46.6280403 17.3589834,46.4489246 17.4351517,46.3180159 L16.5708124,45.8151068 C16.5322063,45.8814582 16.4490687,45.9982327 16.3379306,46.1125527 C16.0910367,46.3665152 15.9168505,46.4171579 15.7248091,46.2707558 C15.648968,46.2129386 15.7657003,45.4213106 16.1704282,44.0009523 C16.1891087,43.9354497 16.1891087,43.9354497 16.207859,43.8698532 C16.9112142,41.4099825 16.9884706,40.9676381 16.2991449,40.5814159 C15.9534087,40.3877033 15.563351,40.3912448 15.1627389,40.5378348 C14.8568925,40.6497486 14.551103,40.8416791 14.2446739,41.0911061 C13.9677073,41.3165512 13.745767,41.5401586 13.6092901,41.6962124 L14.3620343,42.3545254 C14.4645226,42.2373358 14.6493917,42.0510781 14.8759575,41.8666581 C15.1036655,41.6813084 15.3214894,41.5445901 15.5063712,41.4769391 C15.5984847,41.4432334 15.6702147,41.4299123 15.7253273,41.4322152 C15.7312373,41.5384137 15.7173268,41.6959003 15.6820099,41.898113 Z" id="uEA30-trivia"></path>
                </g>
            </g>
        </g>
    </g>
</svg>