<?xml version="1.0" encoding="UTF-8"?>
<svg width="53px" height="42px" viewBox="0 0 53 42" version="1.1" xmlns="http://www.w3.org/2000/svg" xmlns:xlink="http://www.w3.org/1999/xlink">
    <!-- Generator: Sketch 43.1 (39012) - http://www.bohemiancoding.com/sketch -->
    <title>uEA35-swap.svg</title>
    <desc>Created with Sketch.</desc>
    <defs></defs>
    <g id="Page-1" stroke="none" stroke-width="1" fill="none" fill-rule="evenodd">
        <g id="wiki-open-person" transform="translate(-645.000000, -238.000000)" fill-rule="nonzero" fill="#000000">
            <g id="Group-Copy-2" transform="translate(16.000000, 123.000000)">
                <path d="M658.072,152.827 C658.86,152.678 659.618,153.197 659.767,153.985 C659.915,154.772 659.397,155.531 658.609,155.679 C657.394,155.908 656.168,156.02 654.948,156.02 C648.495,156.022 642.186,152.869 638.284,147.146 L638.282,147.143 C635.902,143.634 634.76,139.65 634.761,135.72 C634.761,133.237 635.223,130.776 636.104,128.458 L631.032,130.611 C630.294,130.924 629.442,130.58 629.129,129.842 C628.816,129.104 629.16,128.252 629.898,127.939 L638.268,124.386 C638.353,124.32 638.445,124.26 638.547,124.213 C639.274,123.877 640.136,124.194 640.473,124.921 L640.499,124.978 L640.583,125.22 L644.214,133.774 C644.527,134.512 644.183,135.364 643.445,135.677 C642.707,135.99 641.855,135.646 641.542,134.908 L639.023,128.974 C638.132,131.112 637.662,133.406 637.662,135.72 C637.663,139.091 638.635,142.491 640.682,145.513 C644.038,150.432 649.435,153.116 654.947,153.118 C655.989,153.118 657.035,153.022 658.072,152.827 Z M675.441,135.688 C675.44,138.152 674.987,140.596 674.119,142.898 L679.142,140.766 C679.88,140.453 680.732,140.797 681.045,141.535 C681.358,142.273 681.014,143.125 680.276,143.438 L672.023,146.941 C671.636,147.296 671.072,147.433 670.545,147.239 C670.139,147.09 669.845,146.777 669.699,146.404 L669.675,146.361 L665.958,137.604 C665.645,136.866 665.989,136.014 666.727,135.701 C667.465,135.388 668.317,135.732 668.63,136.47 L671.169,142.455 C672.066,140.311 672.538,138.01 672.538,135.689 C672.537,132.317 671.565,128.916 669.518,125.896 C666.162,120.976 660.766,118.292 655.254,118.29 C654.212,118.29 653.167,118.386 652.131,118.582 C651.343,118.731 650.584,118.213 650.435,117.426 C650.286,116.638 650.804,115.879 651.591,115.73 C652.808,115.5 654.034,115.388 655.254,115.388 C661.707,115.386 668.016,118.54 671.918,124.262 L671.92,124.265 C674.3,127.773 675.442,131.758 675.441,135.688 Z" id="uEA35-swap.svg"></path>
            </g>
        </g>
    </g>
</svg>