<?xml version="1.0" encoding="UTF-8"?>
<svg width="65px" height="62px" viewBox="0 0 65 62" version="1.1" xmlns="http://www.w3.org/2000/svg" xmlns:xlink="http://www.w3.org/1999/xlink">
    <!-- Generator: Sketch 43.1 (39012) - http://www.bohemiancoding.com/sketch -->
    <title>Combined Shape</title>
    <desc>Created with Sketch.</desc>
    <defs></defs>
    <g id="Page-1" stroke="none" stroke-width="1" fill="none" fill-rule="evenodd">
        <g id="Group-17" transform="translate(-1.000000, 0.000000)" fill-rule="nonzero" fill="#000000">
            <path d="M64,28.3 C65.4,27 65.8,25 65.2,23.2 C64.6,21.4 63.1,20.1 61.2,19.8 L46.4,17.7 C45.4,17.6 44.6,17 44.2,16.1 L37.6,2.7 C36.8,1 35.1,0 33.2,0 L33.2,0 C31.3,0 29.6,1.1 28.8,2.7 L22.3,16.1 C21.9,17 21,17.6 20.1,17.7 L5.3,19.9 C3.4,20.2 1.9,21.5 1.3,23.3 C0.7,25.1 1.2,27 2.5,28.4 L13.2,38.8 C13.9,39.5 14.2,40.4 14,41.4 L11.5,56.1 C11.2,58 11.9,59.8 13.5,60.9 C14.4,61.5 15.4,61.8 16.4,61.8 C17.2,61.8 18,61.6 18.7,61.2 L31.9,54.3 C32.8,53.8 33.8,53.8 34.6,54.3 L47.8,61.2 C49.5,62.1 51.5,61.9 53,60.8 C54.5,59.7 55.3,57.8 55,56 L52.5,41.3 C52.3,40.3 52.7,39.4 53.3,38.7 L64,28.3 Z M50.5,41.7 L53,56.4 C53.2,57.5 52.8,58.6 51.8,59.3 C50.9,60 49.7,60.1 48.7,59.5 L35.5,52.6 C34.1,51.8 32.3,51.8 30.9,52.6 L17.7,59.5 C16.7,60 15.5,59.9 14.6,59.3 C13.7,58.6 13.2,57.6 13.4,56.4 L15.9,41.7 C16.2,40.1 15.6,38.5 14.5,37.3 L4,26.9 C3.2,26.1 2.9,25 3.3,23.9 C3.7,22.8 4.5,22.1 5.7,21.9 L20.5,19.8 C22.1,19.6 23.5,18.6 24.2,17.1 L30.8,3.7 C31.3,2.7 32.3,2.1 33.4,2.1 C34.5,2.1 35.5,2.7 36,3.7 L42.6,17.1 C43.3,18.6 44.7,19.6 46.3,19.8 L61,21.9 C62.1,22.1 63,22.8 63.4,23.9 C63.8,25 63.5,26.1 62.7,26.9 L52,37.3 C50.8,38.4 50.3,40 50.5,41.7 Z M27.7,30.7 C29.0254834,30.7 30.1,29.6254834 30.1,28.3 C30.1,26.9745166 29.0254834,25.9 27.7,25.9 C26.3745166,25.9 25.3,26.9745166 25.3,28.3 C25.3,29.6254834 26.3745166,30.7 27.7,30.7 Z M38.9,30.7 C40.2254834,30.7 41.3,29.6254834 41.3,28.3 C41.3,26.9745166 40.2254834,25.9 38.9,25.9 C37.5745166,25.9 36.5,26.9745166 36.5,28.3 C36.5,29.6254834 37.5745166,30.7 38.9,30.7 Z M24.9,39.2 C24.5,39.6 24.5,40.2 24.8,40.6 C25,40.8 25.3,40.9 25.5,40.9 C25.7,40.9 26,40.8 26.2,40.6 C33.1,34.3 40,40.3 40.3,40.6 C40.7,41 41.3,40.9 41.7,40.5 C42.1,40.1 42,39.5 41.6,39.1 C41.6,39.1 33.2,31.7 24.9,39.2 Z" id="Combined-Shape"></path>
        </g>
    </g>
</svg>