<?xml version="1.0" encoding="UTF-8"?>
<svg width="26px" height="26px" viewBox="0 0 26 26" version="1.1" xmlns="http://www.w3.org/2000/svg" xmlns:xlink="http://www.w3.org/1999/xlink">
    <!-- Generator: Sketch 47.1 (45422) - http://www.bohemiancoding.com/sketch -->
    <title>Combined Shape</title>
    <desc>Created with Sketch.</desc>
    <defs></defs>
    <g id="Page-1" stroke="none" stroke-width="1" fill="none" fill-rule="evenodd">
        <g id="wiki-open-people" transform="translate(-103.000000, -23.000000)" fill-rule="nonzero" fill="#FBF9F9">
            <path d="M118.5,24.5 L118.5,31 L119.5,31 L119.5,23.5 L112.5,23.5 L112.5,31 L113.5,31 L113.5,24.5 L118.5,24.5 Z M113.5,47.5 L113.5,41 L112.5,41 L112.5,48.5 L119.5,48.5 L119.5,41 L118.5,41 L118.5,47.5 L113.5,47.5 Z M127.549416,47.9019028 L128,47.6851671 L127.5,47.6851671 L127.5,47.7991685 L127.549416,47.9019028 Z M105.5,47.6851671 L105,47.6851671 L105.443888,47.9153041 L105.5,47.8070761 L105.5,47.6851671 Z M105.659206,47.5 L110.522613,47.5 L111.698575,44.8569242 L121.275633,44.8569242 L122.386379,47.5 L127.356097,47.5 L116.914098,25.791552 L105.659206,47.5 Z M117.205167,25.230137 L116.761279,25 L116.761279,25.5 L116.773858,25.5 L117.065255,25.5 L117.088189,25.5 L117.088189,25 L116.637605,25.2167356 L116.914098,25.791552 L117.205167,25.230137 Z M111.172203,48.5 L104.5,48.5 L104.5,47.5632582 L116.457303,24.5 L117.402519,24.5 L128.450584,47.4684315 L128.5,47.6851671 L128.5,48.5 L121.721911,48.5 L120.611165,45.8569242 L112.348165,45.8569242 L111.172203,48.5 Z M119.745069,42.5 L112.231754,42.5 L115.774393,34.5 L116.46883,34.5 L119.745069,42.5 Z M113.768246,41.5 L118.254931,41.5 L116.099232,36.2361611 L113.768246,41.5 Z M116.556989,35.2024527 L116.099809,35 L116.099809,35.5 L116.133291,35.5 L116.133291,35 L115.670589,35.1894904 L116.099232,36.2361611 L116.556989,35.2024527 Z M127.329939,24.5 L118.604785,40.7636263 L119.485983,41.2363737 L128.5,24.4343083 L128.5,23.5 L122.298458,23.5 L116.149466,35.1131088 L117.033227,35.5810485 L122.900499,24.5 L127.329939,24.5 Z M104.675405,24.5 L109.497154,24.5 L115.268569,35.5780954 L116.155431,35.1160619 L110.103749,23.5 L103.5,23.5 L103.5,24.4368638 L112.657148,41.1191475 L113.533766,40.6379594 L104.675405,24.5 Z" id="Combined-Shape"></path>
        </g>
    </g>
</svg>