<?xml version="1.0" encoding="UTF-8"?>
<svg width="30px" height="20px" viewBox="0 0 30 20" version="1.1" xmlns="http://www.w3.org/2000/svg" xmlns:xlink="http://www.w3.org/1999/xlink">
    <!-- Generator: Sketch 47.1 (45422) - http://www.bohemiancoding.com/sketch -->
    <title>uEA47-google-plus-outline</title>
    <desc>Created with Sketch.</desc>
    <defs></defs>
    <g id="Page-1" stroke="none" stroke-width="1" fill="none" fill-rule="evenodd">
        <g id="products-sharing" transform="translate(-961.000000, -208.000000)" fill-rule="nonzero" fill="#000000">
            <g id="Group-5" transform="translate(13.000000, 82.000000)">
                <g id="Group-15" transform="translate(696.000000, 115.000000)">
                    <g id="Group-9" transform="translate(245.000000, 0.000000)">
                        <path d="M30.0979829,15.7352941 L33.5541247,15.7352941 L33.5541247,18.2003732 L36.0294118,18.2003732 L36.0294118,21.6791481 L33.5541247,21.6791481 L33.5541247,24.1470588 L30.0864671,24.1470588 L30.0960397,21.6791481 L27.6176471,21.6791481 L27.6176471,18.2003732 L30.0979829,18.2003732 L30.0979829,15.7352941 Z M31.0979829,19.2003732 L28.6176471,19.2003732 L28.6176471,20.6791481 L31.0999261,20.6791481 L31.0903535,23.1470588 L32.5541247,23.1470588 L32.5541247,20.6791481 L35.0294118,20.6791481 L35.0294118,19.2003732 L32.5541247,19.2003732 L32.5541247,16.7352941 L31.0979829,16.7352941 L31.0979829,19.2003732 Z M20.4072738,17.0730878 L20.0562528,17.3889482 L19.7208581,17.0565421 C16.7688676,14.1308561 11.8563404,16.6229541 11.8563404,20.9137042 C11.8563404,23.7747769 13.8461512,26.1953657 16.8623215,26.1064352 C19.0827692,26.0409662 20.6086187,24.7255254 21.0553732,22.6352133 L21.5443304,23.2397163 L16.7177186,23.2397163 L16.2177186,23.2397163 L16.2177186,19.2287303 L25.2468082,19.2287303 L25.3093608,19.6563621 C26.2317008,25.9618042 21.8979101,30.5 16.8770574,30.5 C11.7517722,30.5 7.53874502,26.5426001 7.50026016,20.9171247 C7.46260369,15.4127393 11.7593103,11.6206469 16.573424,11.5029333 C19.0435925,11.4425333 21.1321274,12.315851 22.8039504,14.1090777 L23.1261598,14.4546851 L22.7993074,14.7959047 C22.2209906,15.399642 21.4241361,16.1580813 20.4072738,17.0730878 Z M21.7373655,14.4512187 C20.3242539,13.0990591 18.6203605,12.453181 16.5978685,12.5026345 C12.2975681,12.6077845 8.46656846,15.9888634 8.50023676,20.9102837 C8.534874,25.9733384 12.2893395,29.5 16.8770574,29.5 C21.1981239,29.5 24.9557456,25.6796055 24.3740144,20.2287303 C21.1163867,20.2287303 20.7698803,20.2287303 17.4464062,20.2287303 L17.2177186,22.2397163 C19.3515285,22.2397163 19.5573631,22.2397163 21.5443304,22.2397163 L22.1624857,22.2397163 L22.0332876,22.8442193 C21.4916436,25.378508 19.5797637,27.0267471 16.8917933,27.1060008 C13.2555534,27.2132138 10.8563404,24.2945905 10.8563404,20.9137042 C10.8563404,15.9410439 16.4358501,12.9532571 20.0746018,16.0255795 C20.7357528,15.4241679 21.2901728,14.899171 21.7373655,14.4512187 Z" id="uEA47-google-plus-outline"></path>
                    </g>
                </g>
            </g>
        </g>
    </g>
</svg>