<?xml version="1.0" encoding="UTF-8"?>
<svg width="23px" height="19px" viewBox="0 0 23 19" version="1.1" xmlns="http://www.w3.org/2000/svg" xmlns:xlink="http://www.w3.org/1999/xlink">
    <!-- Generator: Sketch 47.1 (45422) - http://www.bohemiancoding.com/sketch -->
    <title>uEA48-twitter-outline</title>
    <desc>Created with Sketch.</desc>
    <defs></defs>
    <g id="Page-1" stroke="none" stroke-width="1" fill="none" fill-rule="evenodd">
        <g id="products-sharing" transform="translate(-801.000000, -208.000000)" fill-rule="nonzero" fill="#000000">
            <g id="Group-5" transform="translate(13.000000, 82.000000)">
                <g id="Group-15" transform="translate(696.000000, 115.000000)">
                    <g id="Group-11" transform="translate(82.000000, 0.000000)">
                        <path d="M31.7866889,13.5504028 C32.2501114,13.3318051 32.7033051,13.8687998 32.4099343,14.2888937 C31.6564251,15.3678849 30.9415071,16.0951919 29.9517542,16.6990771 L29.6913319,16.2722513 L30.1913319,16.2722513 L30.1913319,16.8062827 C30.1913319,23.5426325 24.953895,29.5 17.5264271,29.5 C15.1519429,29.5 12.7429302,28.7598099 10.7291685,27.4621827 C10.2536175,27.1557473 10.572775,26.4193655 11.1215381,26.5568812 C11.2570051,26.5908282 11.3911758,26.6106707 11.5439088,26.6208771 C11.6683911,26.6291955 11.7715126,26.6308901 12.0211416,26.6308901 C13.4445349,26.6308901 14.7902044,26.2712771 15.954066,25.6005631 C14.5136094,25.1424679 13.2998671,23.9606528 12.8317747,22.4748494 C12.7450714,22.1996389 12.9047008,21.9369749 13.1424747,21.8521673 C12.039417,20.9785824 11.3435518,19.6134507 11.3435518,18.0968586 L11.3435518,18.0078534 C11.3435518,17.6359555 11.735104,17.394219 12.067582,17.5608518 C12.1160963,17.5851663 12.1642896,17.6085931 12.2121645,17.6311242 C11.7175492,16.8615853 11.4323467,15.9328943 11.4323467,14.9816754 C11.4323467,14.1196262 11.6722948,13.3379479 12.1195372,12.5534199 C12.2939112,12.2475426 12.7213882,12.2128986 12.9427415,12.486705 C14.8309972,14.8224119 17.6510441,16.3388264 20.7807549,16.6958376 C20.7638401,16.5659975 20.755814,16.4469159 20.755814,16.3167539 C20.755814,13.6222399 22.9035029,11.5 25.5623679,11.5 C26.7939861,11.5 27.925351,11.9706141 28.8361694,12.8020679 C29.5944808,12.6618 30.3695793,12.3431512 31.1172613,11.8851522 C31.5093607,11.6449684 31.9904592,12.0168028 31.8568682,12.4567842 C31.7101429,12.9400234 31.4908408,13.3844047 31.2073107,13.7825618 C31.4121796,13.7135062 31.603417,13.6368527 31.7866889,13.5504028 Z M29.5880841,15.1645994 C29.0469159,15.2459669 28.787077,14.5237277 29.2560466,14.2416795 C29.6203286,14.0225926 29.9362887,13.7574656 30.1978636,13.4517704 C29.7145066,13.6349522 29.225592,13.7638117 28.737904,13.8304722 C28.5828238,13.8516695 28.4267658,13.7990222 28.3162189,13.6882135 C27.5563622,12.926557 26.6039427,12.5 25.5623679,12.5 C23.4531369,12.5 21.755814,14.1772105 21.755814,16.3167539 C21.755814,16.4771655 21.7760459,16.6258843 21.8250776,16.8716237 C21.8545211,17.0165079 21.869363,17.0918852 21.8822348,17.1692984 C21.9349924,17.4865942 21.6787663,17.770442 21.3577436,17.7503306 C17.9702716,17.5381121 14.8581606,16.073149 12.6740208,13.7045951 C12.5140146,14.1215691 12.4323467,14.5393554 12.4323467,14.9816754 C12.4323467,16.2604099 13.0848929,17.4909893 14.0670194,18.121039 C14.4872519,18.3906248 14.2963115,19.0418848 13.7970402,19.0418848 C13.3425872,19.0418848 12.8804596,18.9546159 12.4055615,18.7900007 C12.680348,20.3064114 13.8416252,21.5129787 15.3518042,21.7882071 C15.881034,21.8846586 15.9055071,22.6343462 15.3836945,22.7651083 C14.993564,22.8628719 14.5562342,22.9131921 14.1133841,22.9136099 C14.7670641,24.0364685 15.9925015,24.8062827 17.2600423,24.8062827 C17.7304972,24.8062827 17.9405707,25.3968863 17.5757878,25.6939743 C16.3003509,26.7327212 14.7475246,27.3811434 13.0691862,27.5718743 C14.4848546,28.1717666 16.0161823,28.5 17.5264271,28.5 C24.3708979,28.5 29.1913319,23.016956 29.1913319,16.8062827 L29.1913319,16.2722513 C29.1913319,16.0979418 29.2821101,15.9362137 29.4309096,15.8454256 C29.8400276,15.5958074 30.1951014,15.321774 30.5283583,14.9978456 C30.2398267,15.058811 29.9287628,15.1133766 29.5880841,15.1645994 Z" id="uEA48-twitter-outline"></path>
                    </g>
                </g>
            </g>
        </g>
    </g>
</svg>