<?xml version="1.0" encoding="UTF-8"?>
<svg width="57px" height="79px" viewBox="0 0 57 79" version="1.1" xmlns="http://www.w3.org/2000/svg" xmlns:xlink="http://www.w3.org/1999/xlink">
    <!-- Generator: Sketch 47.1 (45422) - http://www.bohemiancoding.com/sketch -->
    <title>Combined Shape</title>
    <desc>Created with Sketch.</desc>
    <defs></defs>
    <g id="Page-1" stroke="none" stroke-width="1" fill="none" fill-rule="evenodd">
        <path d="M52.8600691,66.5872468 C53.0929374,67.088037 53.6876851,67.3052305 54.1884753,67.0723622 C54.6892655,66.8394939 54.9064591,66.2447462 54.6735907,65.743956 L29.4864902,11.5783546 C29.127909,10.8072151 28.0315498,10.8072151 27.6729686,11.5783546 L2.48586806,65.743956 C2.25299975,66.2447462 2.47019332,66.8394939 2.97098349,67.0723622 C3.47177366,67.3052305 4.06652137,67.088037 4.29938968,66.5872468 L28.5797294,14.3716612 L52.8600691,66.5872468 Z M14.5,40.5 L42.5,40.5 C43.0522847,40.5 43.5,40.0522847 43.5,39.5 C43.5,38.9477153 43.0522847,38.5 42.5,38.5 L14.5,38.5 C13.9477153,38.5 13.5,38.9477153 13.5,39.5 C13.5,40.0522847 13.9477153,40.5 14.5,40.5 Z M1.89110245,10.5461978 C1.64047443,10.0540555 1.03834012,9.85826952 0.546197824,10.1088975 C0.0540555276,10.3595256 -0.141730476,10.9616599 0.108897545,11.4538022 L27.6088975,65.4538022 C27.9797726,66.1820659 29.0202274,66.1820659 29.3911025,65.4538022 L56.8911025,11.4538022 C57.1417305,10.9616599 56.9459445,10.3595256 56.4538022,10.1088975 C55.9616599,9.85826952 55.3595256,10.0540555 55.1088975,10.5461978 L28.5,62.7963966 L1.89110245,10.5461978 Z M27.5,1.39877148 L27.5,78 C27.5,78.5522847 27.9477153,79 28.5,79 C29.0522847,79 29.5,78.5522847 29.5,78 L29.5,1.39877148 C29.5,0.846486729 29.0522847,0.398771479 28.5,0.398771479 C27.9477153,0.398771479 27.5,0.846486729 27.5,1.39877148 Z" id="Combined-Shape" fill="#232021" fill-rule="nonzero"></path>
    </g>
</svg>