<?xml version="1.0" encoding="UTF-8"?>
<svg width="23px" height="23px" viewBox="0 0 23 23" version="1.1" xmlns="http://www.w3.org/2000/svg" xmlns:xlink="http://www.w3.org/1999/xlink">
    <!-- Generator: Sketch 47.1 (45422) - http://www.bohemiancoding.com/sketch -->
    <title>uEA46-pinterest-outline</title>
    <desc>Created with Sketch.</desc>
    <defs></defs>
    <g id="Page-1" stroke="none" stroke-width="1" fill="none" fill-rule="evenodd">
        <g id="products-sharing" transform="translate(-909.000000, -206.000000)" fill-rule="nonzero" fill="#000000">
            <g id="Group-5" transform="translate(13.000000, 82.000000)">
                <g id="Group-15" transform="translate(696.000000, 115.000000)">
                    <g id="Group-8" transform="translate(190.666667, 0.000000)">
                        <path d="M17.1437428,29.7281137 C18.2230596,30.1228486 19.3887625,30.3382538 20.604776,30.3382538 C26.1697023,30.3382538 30.6809664,25.8269897 30.6809664,20.2620634 C30.6809664,14.697137 26.1697023,10.1858729 20.604776,10.1858729 C15.0398496,10.1858729 10.5285855,14.697137 10.5285855,20.2620634 C10.5285855,24.1261514 12.7036565,27.4822244 15.8962538,29.1727376 L16.1442011,28.8956231 C16.4586215,28.3427958 16.7507372,27.6803922 17.0221471,26.9252188 C17.287219,26.1876804 17.5179031,25.4069957 17.7405693,24.5378741 C17.8012462,24.3010367 17.9483463,23.6938345 18.0435985,23.309332 C17.7052007,22.1722196 17.5905617,20.8511295 17.7313716,20.0729619 C17.9212082,18.517733 19.0751641,17.618176 20.12605,18.4226333 C20.7251286,18.8812303 20.5993463,19.6492577 20.0713918,21.3077196 C20.0190634,21.4720985 19.9625415,21.6432727 19.9007758,21.8251667 C19.8387769,22.0077472 19.4968713,22.9751154 19.3977812,23.2754113 C19.5252518,23.6352227 19.6778897,23.9382788 19.8504452,24.1270426 C20.7004668,25.0569071 21.6222872,25.3178157 22.7575137,24.8843456 C24.0593011,24.3872767 24.7760239,23.35144 25.0464268,21.8836807 C25.2351114,20.8594915 25.1855791,19.8270542 25.0194241,18.8462759 C24.8029433,17.5684347 23.5381121,15.9832155 21.9628553,15.6901773 C19.8333958,15.2940432 17.5778441,15.9919528 16.319058,17.5064889 C15.2219347,18.826517 14.9812063,19.9380365 15.1934424,21.1318797 C15.3301848,21.9010658 15.9227922,22.7592808 16.3548342,22.8670046 L16.0403258,24.1283866 C15.0238473,23.8749416 14.1307856,22.5816081 13.9135106,21.3594201 C13.6376496,19.8076818 13.9624254,18.3080889 15.319291,16.6755462 C16.8950804,14.7796005 19.6289131,13.9337019 22.2006098,14.4121034 C24.372252,14.8160846 26.0010121,16.8574177 26.3011612,18.6291351 C26.4904964,19.7467415 26.5465898,20.9159358 26.3249118,22.1192139 C25.978754,23.9981748 24.9934923,25.4221148 23.2212444,26.0988224 C21.5910881,26.7212744 20.1332551,26.3255358 18.9470349,25.0646599 C18.731098,25.8896265 18.5050089,26.6429405 18.2455342,27.3649051 C17.9402696,28.214276 17.6067361,28.9651117 17.2363933,29.6042097 L17.1584,29.7117322 L17.1437428,29.7281137 Z M20.604776,31.1382538 C14.5980218,31.1382538 9.72858547,26.2688175 9.72858547,20.2620634 C9.72858547,14.2553092 14.5980218,9.38587288 20.604776,9.38587288 C26.6115301,9.38587288 31.4809664,14.2553092 31.4809664,20.2620634 C31.4809664,26.2688175 26.6115301,31.1382538 20.604776,31.1382538 Z" id="uEA46-pinterest-outline"></path>
                    </g>
                </g>
            </g>
        </g>
    </g>
</svg>