<?xml version="1.0" encoding="UTF-8"?>
<svg width="30px" height="30px" viewBox="0 0 30 30" version="1.1" xmlns="http://www.w3.org/2000/svg" xmlns:xlink="http://www.w3.org/1999/xlink">
    <!-- Generator: Sketch 47.1 (45422) - http://www.bohemiancoding.com/sketch -->
    <title>uEA43-pinterest</title>
    <desc>Created with Sketch.</desc>
    <defs></defs>
    <g id="Page-1" stroke="none" stroke-width="1" fill="none" fill-rule="evenodd" fill-opacity="0.6">
        <g id="wiki-products-sharing" transform="translate(-110.000000, -507.000000)" fill-rule="nonzero" fill="#FBF9F9">
            <g id="Group-5" transform="translate(13.000000, 82.000000)">
                <g id="Group-7" transform="translate(23.000000, 311.000000)">
                    <path d="M103.95293,129.418765 C104.197433,120.870581 97.2781114,113.877676 88.756586,114.001598 C80.554891,114.120872 73.9376755,120.894334 74.0004358,129.096683 C74.0454722,134.974068 77.475569,140.045157 82.4371186,142.457942 C82.7241162,142.597482 83.056368,142.380508 83.0443826,142.06155 C83.0082082,141.097772 83.0393705,140.067458 83.2322276,139.239225 C83.4220339,138.423705 84.1668039,135.27 84.6564649,133.198257 C84.8947942,132.189661 84.9235593,131.142349 84.7316465,130.123874 C84.6686683,129.789661 84.6230508,129.397046 84.6230508,128.960702 C84.6230508,126.746731 85.9062954,125.093753 87.5041404,125.093753 C88.8625666,125.093753 89.5187893,126.11368 89.5187893,127.336634 C89.5187893,128.70276 88.6489346,130.74523 88.2000242,132.638136 C87.8249153,134.222978 88.9948426,135.515375 90.5578935,135.515375 C93.3879177,135.515375 95.5632446,132.531356 95.5632446,128.223995 C95.5632446,124.411671 92.8238741,121.746102 88.9123245,121.746102 C84.3818886,121.746102 81.7226392,125.144237 81.7226392,128.656053 C81.7226392,130.024504 82.2498547,131.492034 82.9076029,132.289758 C83.0376271,132.447385 83.0568039,132.585617 83.0180872,132.746441 C82.8972155,133.249395 82.6285956,134.33092 82.5758596,134.552179 C82.5063438,134.84368 82.3450847,134.905424 82.043414,134.765157 C80.0546247,133.839443 78.8114044,130.932058 78.8114044,128.596707 C78.8114044,123.573923 82.4607264,118.961332 89.3319613,118.961332 C94.8554479,118.961332 99.1479903,122.897215 99.1479903,128.157385 C99.1479903,133.644915 95.6879661,138.061235 90.8854964,138.061235 C89.6164165,138.061235 88.407046,137.542591 87.6960533,136.83937 C87.4774092,136.623123 87.1077482,136.721622 87.0297337,137.01908 C86.7793462,137.973051 86.3746005,139.516126 86.2442131,140.017918 C86.0094431,140.920751 85.5146973,141.972276 85.0187167,142.888039 C84.8869492,143.13138 85.0202421,143.431961 85.2884988,143.499952 C86.5129782,143.810484 87.7973123,143.970799 89.1212349,143.958523 C96.9814528,143.885593 103.728184,137.276223 103.95293,129.418765 Z" id="uEA43-pinterest"></path>
                </g>
            </g>
        </g>
    </g>
</svg>