<?xml version="1.0" encoding="UTF-8"?>
<svg width="25px" height="24px" viewBox="0 0 25 24" version="1.1" xmlns="http://www.w3.org/2000/svg" xmlns:xlink="http://www.w3.org/1999/xlink">
    <!-- Generator: Sketch 47.1 (45422) - http://www.bohemiancoding.com/sketch -->
    <title>uEA44-share-outline</title>
    <desc>Created with Sketch.</desc>
    <defs></defs>
    <g id="Page-1" stroke="none" stroke-width="1" fill="none" fill-rule="evenodd">
        <g id="products-sharing" transform="translate(-747.000000, -206.000000)" fill-rule="nonzero" fill="#000000">
            <g id="Group-5" transform="translate(13.000000, 82.000000)">
                <g id="Group-15" transform="translate(696.000000, 115.000000)">
                    <path d="M45.8935175,22.2557757 C45.2938795,23.6104209 43.9378693,24.5555556 42.3611111,24.5555556 C40.2286783,24.5555556 38.5,22.8268772 38.5,20.6944444 C38.5,18.5620117 40.2286783,16.8333333 42.3611111,16.8333333 C43.7451498,16.8333333 44.9591047,17.5615489 45.6407247,18.655729 L55.7450905,14.1648998 C55.657778,13.850773 55.6111111,13.5197251 55.6111111,13.1777777 C55.6111111,11.1465971 57.2577083,9.5 59.2888888,9.5 C61.3200693,9.5 62.9666664,11.1465971 62.9666664,13.1777777 C62.9666664,15.2089582 61.3200693,16.8555553 59.2888888,16.8555553 C57.9550311,16.8555553 56.7870223,16.145472 56.1422561,15.0826993 L46.0547272,19.5660455 C46.163635,19.9229837 46.2222222,20.3018722 46.2222222,20.6944444 C46.2222222,20.8935192 46.2071563,21.0890751 46.1781024,21.2800342 L55.2391473,25.8105566 C56.000305,24.8114833 57.2026278,24.1666667 58.5555556,24.1666667 C60.856742,24.1666667 62.7222222,26.0321469 62.7222222,28.3333333 C62.7222222,30.6345198 60.856742,32.5 58.5555556,32.5 C56.2543691,32.5 54.3888889,30.6345198 54.3888889,28.3333333 C54.3888889,27.7439687 54.5112533,27.1831839 54.7319626,26.6749983 L45.8935175,22.2557757 Z M59.2888888,15.8555553 C60.7677845,15.8555553 61.9666664,14.6566734 61.9666664,13.1777777 C61.9666664,11.6988819 60.7677845,10.5 59.2888888,10.5 C57.809993,10.5 56.6111111,11.6988819 56.6111111,13.1777777 C56.6111111,14.6566734 57.809993,15.8555553 59.2888888,15.8555553 Z M42.3611111,23.5555556 C43.9412591,23.5555556 45.2222222,22.2745925 45.2222222,20.6944444 C45.2222222,19.1142964 43.9412591,17.8333333 42.3611111,17.8333333 C40.7809631,17.8333333 39.5,19.1142964 39.5,20.6944444 C39.5,22.2745925 40.7809631,23.5555556 42.3611111,23.5555556 Z M58.5555556,31.5 C60.3044573,31.5 61.7222222,30.082235 61.7222222,28.3333333 C61.7222222,26.5844316 60.3044573,25.1666667 58.5555556,25.1666667 C56.8066538,25.1666667 55.3888889,26.5844316 55.3888889,28.3333333 C55.3888889,30.082235 56.8066538,31.5 58.5555556,31.5 Z" id="uEA44-share-outline"></path>
                </g>
            </g>
        </g>
    </g>
</svg>