<?xml version="1.0" encoding="UTF-8"?>
<svg width="12px" height="21px" viewBox="0 0 12 21" version="1.1" xmlns="http://www.w3.org/2000/svg" xmlns:xlink="http://www.w3.org/1999/xlink">
    <!-- Generator: Sketch 47.1 (45422) - http://www.bohemiancoding.com/sketch -->
    <title>uEA45-facebook-outline</title>
    <desc>Created with Sketch.</desc>
    <defs></defs>
    <g id="Page-1" stroke="none" stroke-width="1" fill="none" fill-rule="evenodd">
        <g id="products-sharing" transform="translate(-859.000000, -206.000000)" fill-rule="nonzero" fill="#000000">
            <g id="Group-5" transform="translate(13.000000, 82.000000)">
                <g id="Group-15" transform="translate(696.000000, 115.000000)">
                    <g id="Group-12" transform="translate(136.333333, 0.000000)">
                        <path d="M21.6549296,29.5 L17.3098592,29.5 L17.3098592,20.8028169 L15,20.8028169 L14.5,20.8028169 L14.5,16.4131455 L17.3098592,16.4131455 L17.3098592,14.4600939 C17.3098592,11.3888275 19.1707041,9.5 22.0023474,9.5 C23.0088226,9.5 24.1764094,9.57297417 24.5821995,9.64060585 L25,9.71023927 L25,13.6220657 L22.8051643,13.6220657 C21.9059877,13.6220657 21.6995305,13.8776794 21.6995305,14.7723005 L21.6995305,16.4131455 L24.9808973,16.4131455 L24.4033089,20.8028169 L21.6549296,20.8028169 L21.6549296,29.5 Z M20.6549296,19.8028169 L23.5262685,19.8028169 L23.840699,17.4131455 L20.6995305,17.4131455 L20.6995305,14.7723005 C20.6995305,13.3667874 21.3010365,12.6220657 22.8051643,12.6220657 L24,12.6220657 L24,10.5804399 C23.4947643,10.5377136 22.7052953,10.5 22.0023474,10.5 C19.7263573,10.5 18.3098592,11.9377989 18.3098592,14.4600939 L18.3098592,17.4131455 L15.5,17.4131455 L15.5,19.8028169 L18.3098592,19.8028169 L18.3098592,28.5 L20.6549296,28.5 L20.6549296,19.8028169 Z" id="uEA45-facebook-outline"></path>
                    </g>
                </g>
            </g>
        </g>
    </g>
</svg>